<svg class="MuiBox-root css-1xjnskw" fill="none" viewBox="0 0 25 24" xmlns="http://www.w3.org/2000/svg"><path d="M21.1445 12.2077C21.1445 11.5959 21.0949 10.9808 20.9891 10.3789H12.5V13.8446H17.3613C17.1596 14.9624 16.5114 15.9512 15.5623 16.5795V18.8283H18.4625C20.1656 17.2608 21.1445 14.9459 21.1445 12.2077Z" fill="#4285F4"></path><path d="M12.5001 21.001C14.9275 21.001 16.9745 20.204 18.466 18.8283L15.5657 16.5795C14.7588 17.1285 13.7171 17.4393 12.5035 17.4393C10.1555 17.4393 8.16467 15.8553 7.45035 13.7256H4.45752V16.0438C5.98535 19.0829 9.09724 21.001 12.5001 21.001Z" fill="#34A853"></path><path d="M7.4469 13.725C7.06991 12.6073 7.06991 11.3969 7.4469 10.2791V7.96094H4.45738C3.18087 10.504 3.18087 13.5002 4.45738 16.0432L7.4469 13.725Z" fill="#FBBC04"></path><path d="M12.5001 6.56225C13.7833 6.5424 15.0234 7.02523 15.9527 7.9115L18.5222 5.34196C16.8951 3.81413 14.7357 2.97415 12.5001 3.00061C9.09724 3.00061 5.98535 4.91867 4.45752 7.96111L7.44705 10.2793C8.15805 8.1463 10.1522 6.56225 12.5001 6.56225Z" fill="#EA4335"></path></svg>