  <svg class="MuiSvgIcon-root MuiSvgIcon-fontSizeMedium css-10dohqv" focusable="false" aria-hidden="true" viewBox="0 0 24 24"><path d="M0 12C0 5.37258 5.37258 0 12 0C18.6274 0 24 5.37258 24 12C24 18.6274 18.6274 24 12 24C5.37258 24 0 18.6274 0 12Z" fill="#00D2EF" fill-opacity="0.15"></path><path clip-rule="evenodd" d="M17.687 7.97982C17.8822 8.17508 17.8822 8.49167 17.687 8.68693L10.3536 16.0203C10.1584 16.2155 9.84179 16.2155 9.64653 16.0203L6.31319 12.6869C6.11793 12.4917 6.11793 12.1751 6.31319 11.9798C6.50846 11.7846 6.82504 11.7846 7.0203 11.9798L10.0001 14.9596L16.9799 7.97982C17.1751 7.78456 17.4917 7.78456 17.687 7.97982Z" fill="#00D2EF" fill-rule="evenodd"></path><path d="M12 23C5.92487 23 1 18.0751 1 12H-1C-1 19.1797 4.8203 25 12 25V23ZM23 12C23 18.0751 18.0751 23 12 23V25C19.1797 25 25 19.1797 25 12H23ZM12 1C18.0751 1 23 5.92487 23 12H25C25 4.8203 19.1797 -1 12 -1V1ZM12 -1C4.8203 -1 -1 4.8203 -1 12H1C1 5.92487 5.92487 1 12 1V-1Z" fill="#00D2EF" fill-opacity="0.15"></path></svg>