<svg width="48" height="48" viewBox="0 0 48 48" fill="none" xmlns="http://www.w3.org/2000/svg"><rect width="48" height="48" rx="24" fill="#5383FF" fill-opacity="0.15"></rect><path fill-rule="evenodd" clip-rule="evenodd" d="M18 15.75A2.25 2.25 0 0 0 15.75 18v12A2.25 2.25 0 0 0 18 32.25h12A2.25 2.25 0 0 0 32.25 30V18A2.25 2.25 0 0 0 30 15.75H18ZM14.25 18A3.75 3.75 0 0 1 18 14.25h12A3.75 3.75 0 0 1 33.75 18v12A3.75 3.75 0 0 1 30 33.75H18A3.75 3.75 0 0 1 14.25 30V18Zm5.174 2.52a.75.75 0 0 1 1.056-.096l3 2.5a.75.75 0 0 1 0 1.152l-3 2.5a.75.75 0 0 1-.96-1.152l2.308-1.924-2.308-1.924a.75.75 0 0 1-.096-1.056ZM24.25 27a.75.75 0 0 1 .75-.75h3a.75.75 0 0 1 0 1.5h-3a.75.75 0 0 1-.75-.75Z" fill="#5383FF"></path><rect x="0.5" y="0.5" width="47" height="47" rx="23.5" stroke="#5383FF" stroke-opacity="0.15"></rect></svg>