<svg width="48" height="48" viewBox="0 0 48 48" fill="none" xmlns="http://www.w3.org/2000/svg"><rect width="48" height="48" rx="24" fill="#5383FF" fill-opacity="0.15"></rect><path fill-rule="evenodd" clip-rule="evenodd" d="M24.49 19.6a.75.75 0 0 0-.64-.36c-.554 0-1 .446-1 1 0 .525.426 1 1 1a1 1 0 0 0 .704-.296 1 1 0 0 0 .296-.704.75.75 0 0 0-.36-.64ZM22.25 27.5a.75.75 0 0 1 .75-.75h2.31a.75.75 0 0 1 0 1.5H23a.75.75 0 0 1-.75-.75Z" fill="#5383FF"></path><path fill-rule="evenodd" clip-rule="evenodd" d="M20.269 14.992a9.75 9.75 0 1 1 7.462 18.016 9.75 9.75 0 0 1-7.462-18.016ZM24 15.75a8.25 8.25 0 1 0 0 16.5 8.25 8.25 0 0 0 0-16.5Zm-.54 4.887a.75.75 0 0 0 1.38-.407.994.994 0 0 0-1.058-.988.75.75 0 0 0-.322 1.395Zm-1.201 2.613a.75.75 0 0 1 .75-.75h1.15a.75.75 0 0 1 .75.75v4.25a.75.75 0 0 1-1.5 0V24h-.4a.75.75 0 0 1-.75-.75Z" fill="#5383FF"></path><rect x="0.5" y="0.5" width="47" height="47" rx="23.5" stroke="#5383FF" stroke-opacity="0.15"></rect></svg>