<svg width="48" height="48" viewBox="0 0 48 48" fill="none" xmlns="http://www.w3.org/2000/svg"><rect width="48" height="48" rx="24" fill="#5383FF" fill-opacity="0.15"></rect><path fill-rule="evenodd" clip-rule="evenodd" d="M24 15.75A8.244 8.244 0 0 0 15.75 24 8.244 8.244 0 0 0 24 32.25 8.25 8.25 0 0 0 32.25 24 8.25 8.25 0 0 0 24 15.75ZM14.25 24A9.744 9.744 0 0 1 24 14.25 9.75 9.75 0 0 1 33.75 24 9.75 9.75 0 0 1 24 33.75 9.744 9.744 0 0 1 14.25 24Z" fill="#5383FF"></path><path fill-rule="evenodd" clip-rule="evenodd" d="M21.24 21.83a2.743 2.743 0 0 1 2.75-2.75 2.75 2.75 0 0 1 2.75 2.75c0 1.192-.771 1.817-1.302 2.186l-.012.008c-.457.305-.676.55-.676.976v.25a.75.75 0 0 1-1.5 0V25c0-1.209.776-1.844 1.338-2.22.445-.31.652-.543.652-.95a1.25 1.25 0 0 0-1.25-1.25c-.696 0-1.25.554-1.25 1.25a.75.75 0 0 1-1.5 0ZM23.994 27.25h.005a1.004 1.004 0 0 1 1 1 1 1 0 0 1-.296.704 1 1 0 0 1-.704.296c-.573 0-1-.475-1-1a.997.997 0 0 1 .99-1h.005Z" fill="#5383FF"></path><rect x="0.5" y="0.5" width="47" height="47" rx="23.5" stroke="#5383FF" stroke-opacity="0.15"></rect></svg>