<svg width="48" height="48" viewBox="0 0 48 48" fill="none" xmlns="http://www.w3.org/2000/svg"><rect width="48" height="48" rx="24" fill="#5383FF" fill-opacity="0.15"></rect><path d="M28.3 27.75a.75.75 0 0 1 .75-.75h1.7a.75.75 0 0 1 .75.75v2.55a.75.75 0 0 1-1.5 0v-1.8h-.95a.75.75 0 0 1-.75-.75Z" fill="#5383FF"></path><path fill-rule="evenodd" clip-rule="evenodd" d="M18 14.75A2.246 2.246 0 0 0 15.75 17v10a3.75 3.75 0 0 1 4.5 0V17A2.252 2.252 0 0 0 18 14.75ZM20.25 30a2.25 2.25 0 1 0-4.5 0 2.25 2.25 0 0 0 4.5 0Zm.75 2.25a3.75 3.75 0 0 0 .75-2.25V17c0-.084-.003-.167-.008-.25H31c.688 0 1.25.557 1.25 1.25v4.5a.75.75 0 0 0 1.5 0V18A2.75 2.75 0 0 0 31 15.25h-9.683c-.63-1.19-1.883-2-3.317-2A3.746 3.746 0 0 0 14.25 17v13A3.75 3.75 0 0 0 18 33.75h5a.75.75 0 0 0 0-1.5h-2ZM25.25 27A2.75 2.75 0 0 1 28 24.25h4A2.75 2.75 0 0 1 34.75 27v4A2.75 2.75 0 0 1 32 33.75h-4A2.75 2.75 0 0 1 25.25 31v-4ZM28 25.75c-.69 0-1.25.56-1.25 1.25v4c0 .69.56 1.25 1.25 1.25h4c.69 0 1.25-.56 1.25-1.25v-4c0-.69-.56-1.25-1.25-1.25h-4Z" fill="#5383FF"></path><rect x="0.5" y="0.5" width="47" height="47" rx="23.5" stroke="#5383FF" stroke-opacity="0.15"></rect></svg>