<svg width="32" height="32" viewBox="0 0 32 32" fill="none" xmlns="http://www.w3.org/2000/svg"><path d="M14.27 11.145a5.643 5.643 0 0 1 1.624-.132A4.237 4.237 0 0 1 19 12.721c.207.281.37.592.509.91.035.091-.072.14-.143.158-.758.195-1.515.397-2.273.596-.054.013-.117.026-.166-.008-.074-.051-.126-.126-.188-.19a1.77 1.77 0 0 0-.424-.37 2.29 2.29 0 0 0-1.253-.317 2.444 2.444 0 0 0-1.088.339 3.205 3.205 0 0 0-.84.686 2.68 2.68 0 0 0-.617 1.381c-.061.433-.046.887.122 1.295.146.37.401.695.729.92.288.2.63.32.98.35.404.04.82-.016 1.191-.181.36-.158.673-.407.928-.703.122-.15.23-.312.343-.47h-2.524c-.095-.001-.206-.026-.254-.117-.048-.095-.013-.206.026-.298.203-.471.416-.939.652-1.394a.355.355 0 0 1 .33-.21l4.19-.001c.238-.755.664-1.439 1.179-2.035.444-.514.98-.951 1.586-1.26.691-.355 1.456-.546 2.224-.64.754-.089 1.534-.042 2.254.211a4.63 4.63 0 0 1 1.857 1.239A3.9 3.9 0 0 1 29 13.633c.23.505.341 1.057.37 1.608.048.803-.076 1.622-.408 2.358-.29.653-.73 1.232-1.244 1.727a5.865 5.865 0 0 1-2.154 1.322c-.41.14-.833.253-1.266.292-.215.02-.43.042-.645.06a5.294 5.294 0 0 1-2.032-.427 4.55 4.55 0 0 1-1.685-1.282c-.35-.43-.61-.933-.757-1.468a6.021 6.021 0 0 1-1.227 1.65 5.287 5.287 0 0 1-1.832 1.154 5.61 5.61 0 0 1-1.522.329 4.894 4.894 0 0 1-1.561-.117 4.538 4.538 0 0 1-2.26-1.36 3.97 3.97 0 0 1-.694-1.082c-.293-.683-.396-1.438-.35-2.177.05-.804.315-1.587.729-2.275a6.514 6.514 0 0 1 1.274-1.527 5.715 5.715 0 0 1 2.534-1.273Zm10.106 2.376c-.435.05-.86.19-1.24.405-.509.287-.91.748-1.141 1.282-.16.373-.276.773-.266 1.181.007.387.119.771.323 1.1.21.34.52.618.881.79.352.164.742.252 1.132.233.463-.02.91-.187 1.299-.433.308-.19.59-.427.813-.714.255-.323.43-.708.515-1.111.044-.223.084-.451.06-.68a2.208 2.208 0 0 0-.726-1.535 2.164 2.164 0 0 0-1.65-.518ZM4.95 13.558c.03-.011.064-.012.096-.012h4.578c.03.002.069-.008.092.018.015.032-.011.061-.026.087-.067.101-.132.204-.2.305a.188.188 0 0 1-.157.085c-1.52-.005-3.04-.01-4.56-.013-.06-.003-.122.01-.179-.012-.02-.021.007-.047.017-.067l.24-.309a.202.202 0 0 1 .099-.082ZM2.896 14.823c.04-.06.114-.081.184-.079h5.897c.043-.006.098.026.079.075-.034.11-.07.22-.11.33-.02.054-.084.066-.136.065l-5.918.013c-.09 0-.182.004-.272-.01v-.031c.085-.126.185-.241.276-.363ZM6.053 15.954c.032-.013.066-.01.1-.011h2.53c.045-.006.097.02.097.07 0 .111-.016.222-.023.333 0 .058-.06.1-.114.093l-2.658-.012c-.064-.002-.13.007-.193-.008l-.02-.029c.029-.09.09-.166.131-.25.04-.069.07-.156.15-.187Z" fill="#00ACD7"></path></svg>