<svg width="32" height="32" viewBox="0 0 32 32" fill="none" xmlns="http://www.w3.org/2000/svg"><path d="M15.987 25c-.241 0-.48-.063-.692-.185l-2.202-1.304c-.329-.183-.168-.249-.06-.286.439-.154.528-.188.996-.454.049-.028.113-.018.164.011l1.691 1.004a.223.223 0 0 0 .205 0l6.596-3.807a.208.208 0 0 0 .1-.178v-7.612a.212.212 0 0 0-.102-.181L16.09 8.204a.203.203 0 0 0-.203 0l-6.592 3.804a.21.21 0 0 0-.105.18v7.611c0 .073.04.142.103.177l1.806 1.043c.98.49 1.58-.087 1.58-.668v-7.513c0-.107.084-.19.192-.19h.835c.104 0 .19.083.19.19v7.516c0 1.307-.713 2.059-1.953 2.059-.382 0-.682 0-1.52-.413l-1.731-.997A1.394 1.394 0 0 1 8 19.799v-7.611c0-.496.264-.958.692-1.202l6.602-3.81a1.446 1.446 0 0 1 1.387 0l6.595 3.811a1.391 1.391 0 0 1 .692 1.202v7.612c0 .493-.266.954-.692 1.202l-6.595 3.809a1.386 1.386 0 0 1-.695.185" fill="#689F63"></path><path d="M18.025 19.755c-2.886 0-3.49-1.325-3.49-2.436a.19.19 0 0 1 .19-.19h.852a.19.19 0 0 1 .188.161c.13.869.512 1.306 2.257 1.306 1.39 0 1.982-.314 1.982-1.05 0-.425-.169-.74-2.328-.952-1.807-.178-2.923-.576-2.923-2.02 0-1.332 1.123-2.124 3.003-2.124 2.112 0 3.159.733 3.291 2.308a.193.193 0 0 1-.191.208h-.857a.19.19 0 0 1-.185-.148c-.207-.913-.705-1.206-2.06-1.206-1.518 0-1.695.529-1.695.925 0 .48.208.62 2.256.891 2.027.27 2.99.65 2.99 2.074 0 1.437-1.199 2.26-3.29 2.26l.01-.007Z" fill="#689F63"></path></svg>