<svg width="32" height="32" viewBox="0 0 32 32" fill="none" xmlns="http://www.w3.org/2000/svg"><path fill-rule="evenodd" clip-rule="evenodd" d="M14.255 12.821A24.61 24.61 0 0 0 12.42 16a24.57 24.57 0 0 0 1.835 3.179 24.596 24.596 0 0 0 3.67 0A24.657 24.657 0 0 0 19.762 16a24.641 24.641 0 0 0-1.835-3.179 24.596 24.596 0 0 0-3.67 0Zm-1.125.112a25.764 25.764 0 0 0-1.176 2.036 19.4 19.4 0 0 1-.635-1.724 19.44 19.44 0 0 1 1.81-.312Zm1.785-1.03a25.803 25.803 0 0 1 2.351 0 19.404 19.404 0 0 0-1.175-1.413c-.393.428-.788.9-1.176 1.413Zm.564-2.043a21.02 21.02 0 0 0-1.709 2.121c-.956.089-1.86.23-2.69.419-.095-.374-.17-.734-.225-1.077-.143-.892-.147-1.644-.024-2.216.122-.572.357-.915.653-1.086.296-.17.71-.203 1.267-.023.557.18 1.206.56 1.907 1.129.27.219.544.464.82.733Zm1.224 0a21.02 21.02 0 0 1 1.708 2.121c.956.089 1.861.23 2.691.419.095-.374.17-.734.225-1.077.143-.892.146-1.644.024-2.216-.123-.572-.358-.915-.654-1.086-.295-.17-.71-.203-1.267-.023-.556.18-1.206.56-1.907 1.129-.27.219-.544.464-.82.733Zm5.25 2.756c.1-.4.18-.785.24-1.154.153-.954.169-1.824.016-2.538-.153-.715-.487-1.325-1.073-1.663-.586-.338-1.28-.323-1.976-.098s-1.44.674-2.19 1.283c-.29.236-.584.498-.88.785-.294-.287-.588-.549-.878-.785-.75-.61-1.495-1.058-2.19-1.283-.696-.225-1.391-.24-1.977.098-.585.338-.92.948-1.072 1.663-.153.714-.138 1.584.015 2.538.06.37.14.755.24 1.154-.395.112-.77.235-1.119.368-.902.345-1.663.766-2.206 1.256C6.361 14.73 6 15.324 6 16c0 .676.36 1.27.903 1.76s1.304.911 2.206 1.256c.35.133.724.256 1.12.369-.101.398-.182.784-.24 1.153-.154.954-.17 1.823-.016 2.538.152.715.487 1.325 1.072 1.663.586.338 1.28.323 1.976.098s1.44-.674 2.19-1.283c.291-.236.585-.498.88-.785.294.287.588.549.879.785.75.61 1.494 1.058 2.19 1.283.696.225 1.39.24 1.976-.098.586-.338.92-.948 1.073-1.663.153-.715.137-1.584-.016-2.538-.06-.37-.14-.755-.24-1.154.396-.112.77-.235 1.12-.368.902-.345 1.662-.766 2.205-1.256.543-.49.903-1.084.903-1.76 0-.676-.36-1.27-.903-1.76s-1.303-.911-2.206-1.256c-.35-.133-.723-.256-1.12-.368Zm-1.09.63a19.44 19.44 0 0 0-1.811-.313 25.764 25.764 0 0 1 1.175 2.036 19.4 19.4 0 0 0 .635-1.724ZM20.73 16c.402-.873.731-1.727.983-2.54.372.105.72.22 1.045.344.844.322 1.497.695 1.931 1.087.434.392.614.768.614 1.109 0 .341-.18.717-.614 1.109s-1.087.765-1.93 1.087c-.325.124-.674.239-1.046.344a21.016 21.016 0 0 0-.983-2.54Zm-.504 1.03a25.892 25.892 0 0 1-1.175 2.037 19.44 19.44 0 0 0 1.81-.312 19.4 19.4 0 0 0-.635-1.724Zm.875 2.57c-.83.188-1.735.33-2.691.419a21.018 21.018 0 0 1-1.708 2.121c.276.27.55.514.82.733.701.57 1.35.949 1.907 1.129.557.18.972.148 1.267-.023.296-.17.531-.514.654-1.086.122-.572.119-1.324-.024-2.216-.055-.343-.13-.703-.225-1.077Zm-5.011 1.91c.393-.428.787-.9 1.175-1.413a25.802 25.802 0 0 1-2.35 0c.387.513.782.985 1.175 1.413Zm-2.961-2.443a25.764 25.764 0 0 1-1.176-2.036 19.4 19.4 0 0 0-.635 1.724 19.44 19.44 0 0 0 1.81.312Zm-2.05.533c.83.188 1.734.33 2.69.419.555.784 1.13 1.496 1.709 2.121-.277.27-.551.514-.82.733-.702.57-1.351.949-1.908 1.129-.556.18-.971.148-1.267-.023-.296-.17-.531-.514-.653-1.086-.123-.572-.12-1.324.024-2.216.054-.343.13-.703.224-1.077Zm-.613-1.06a12.43 12.43 0 0 1-1.045-.344c-.844-.322-1.497-.695-1.93-1.087-.435-.392-.615-.768-.615-1.109 0-.341.18-.717.614-1.109s1.087-.765 1.931-1.087a12.43 12.43 0 0 1 1.045-.344c.252.813.582 1.667.983 2.54a21.016 21.016 0 0 0-.983 2.54Zm5.624-3.9a1.36 1.36 0 1 0 0 2.72 1.36 1.36 0 0 0 0-2.72ZM13.853 16a2.237 2.237 0 1 1 4.475 0 2.237 2.237 0 0 1-4.475 0Z" fill="#61DAFB"></path></svg>