<svg width="32" height="32" viewBox="0 0 32 32" fill="none" xmlns="http://www.w3.org/2000/svg"><path d="M10.227 11.173c.096-.223.45-.234.554-.012.504.855.993 1.72 1.493 2.578 2.373-1.079 5.21-1.077 7.585-.002.502-.855.987-1.721 1.493-2.575.114-.252.528-.195.576.077.034.216-.143.393-.231.577-.427.732-.847 1.469-1.274 2.2a8.738 8.738 0 0 1 3.198 3.003A8.826 8.826 0 0 1 24.94 21c-5.917-.002-11.833.003-17.75-.003.214-2.89 1.96-5.614 4.522-6.979-.465-.794-.92-1.595-1.385-2.39-.073-.136-.189-.299-.1-.455Zm1.456 5.89c-.448.188-.584.835-.227 1.174.364.419 1.13.213 1.241-.33.169-.558-.49-1.115-1.014-.843Zm8.2-.015c-.484.17-.633.869-.242 1.209.377.404 1.133.17 1.225-.374.14-.542-.47-1.06-.984-.835Z" fill="#3DDB86"></path></svg>