<svg width="32" height="32" viewBox="0 0 32 32" fill="none" xmlns="http://www.w3.org/2000/svg"><path d="M7.61 7c1.642.945 3.28 1.893 4.92 2.84.001 1.895 0 3.79 0 5.684-1.639-.948-3.279-1.895-4.92-2.841V7ZM13.07 10.172c1.641.945 3.282 1.892 4.92 2.841v5.683c-1.639-.947-3.278-1.896-4.92-2.84v-5.684ZM13.07 16.479c1.642.944 3.28 1.893 4.92 2.84.002 1.893 0 3.787 0 5.681-1.64-.947-3.278-1.896-4.92-2.84v-5.681Z" fill="#5C4EE5"></path><path d="M18.53 13.012c1.642-.945 3.282-1.892 4.922-2.84v5.683c-1.64.948-3.28 1.896-4.922 2.841v-5.684Z" fill="#4040B2"></path></svg>