<svg width="32" height="32" viewBox="0 0 32 32" fill="none" xmlns="http://www.w3.org/2000/svg"><path d="M15.893 7c-.742.004-1.451.067-2.075.177-1.837.325-2.17 1.004-2.17 2.257v1.655h4.341v.551h-5.971c-1.262 0-2.367.759-2.712 2.202-.399 1.653-.417 2.685 0 4.412.308 1.286 1.045 2.201 2.307 2.201h1.493v-1.983c0-1.433 1.24-2.697 2.712-2.697h4.337c1.207 0 2.17-.994 2.17-2.207V9.434c0-1.176-.992-2.06-2.17-2.257A13.54 13.54 0 0 0 15.893 7Zm-2.348 1.331c.448 0 .815.372.815.83a.82.82 0 0 1-.815.825.82.82 0 0 1-.815-.825c0-.458.365-.83.815-.83Z" fill="url(#paint0_linear_775_14191)"></path><path d="M20.866 11.643v1.928c0 1.494-1.267 2.752-2.712 2.752h-4.337c-1.188 0-2.17 1.017-2.17 2.207v4.134c0 1.177 1.023 1.869 2.17 2.206 1.375.404 2.693.477 4.337 0 1.093-.316 2.17-.953 2.17-2.206v-1.655h-4.336v-.551h6.508c1.262 0 1.732-.88 2.17-2.202.454-1.36.435-2.668 0-4.412-.311-1.256-.907-2.201-2.17-2.201h-1.63Zm-2.439 10.47a.82.82 0 0 1 .815.824c0 .458-.365.83-.815.83a.824.824 0 0 1-.814-.83.82.82 0 0 1 .814-.825Z" fill="url(#paint1_linear_775_14191)"></path><defs><linearGradient id="paint0_linear_775_14191" x1="7" y1="7" x2="17.012" y2="15.531" gradientUnits="userSpaceOnUse"><stop stop-color="#5A9FD4"></stop><stop offset="1" stop-color="#306998"></stop></linearGradient><linearGradient id="paint1_linear_775_14191" x1="18.323" y1="22.798" x2="14.731" y2="17.765" gradientUnits="userSpaceOnUse"><stop stop-color="#FFD43B"></stop><stop offset="1" stop-color="#FFE873"></stop></linearGradient></defs></svg>