<svg width="32" height="32" viewBox="0 -4 17 32" fill="none" xmlns="http://www.w3.org/2000/svg"><path d="M9.135 10.52c1.061 1.223-.279 2.322-.279 2.322s2.695-1.391 1.457-3.133C9.157 8.084 8.271 7.277 13.07 4.494c0 0-7.532 1.881-3.934 6.027Z" fill="#EC2025"></path><path d="M10.315 0s2.286 2.287-2.168 5.803c-3.572 2.821-.814 4.43-.001 6.267C6.06 10.19 4.53 8.533 5.557 6.992c1.507-2.263 5.68-3.36 4.758-6.992Z" fill="#EC2025"></path><path d="M5.225 17.015s-.84.489.598.654c1.744.2 2.635.17 4.556-.193 0 0 .505.317 1.21.591-4.306 1.846-9.747-.107-6.364-1.052ZM4.7 14.606s-.944.698.497.847c1.862.192 3.333.208 5.878-.282 0 0 .352.357.905.552-5.207 1.522-11.007.12-7.28-1.117Z" fill="#0D8AC7"></path><path d="M14.833 18.795s.622.513-.685.91c-2.486.753-10.348.98-12.531.03-.785-.342.687-.816 1.15-.915.483-.105.759-.086.759-.086-.873-.615-5.643 1.208-2.423 1.73 8.781 1.424 16.008-.641 13.73-1.669ZM5.63 12.11s-3.998.95-1.416 1.295c1.09.146 3.265.113 5.29-.057a41.5 41.5 0 0 0 3.316-.436s-.584.25-1.006.538c-4.06 1.068-11.905.571-9.646-.521 1.91-.924 3.462-.819 3.462-.819ZM12.803 16.12c4.128-2.146 2.22-4.207.887-3.93-.326.069-.472.127-.472.127s.121-.19.353-.272c2.635-.926 4.662 2.733-.85 4.182 0 0 .063-.057.082-.108Z" fill="#0D8AC7"></path><path d="M6.036 21.93c3.962.254 10.046-.14 10.19-2.015 0 0-.276.71-3.274 1.275-3.382.637-7.553.562-10.027.154 0 0 .507.42 3.11.587Z" fill="#0D8AC7"></path></svg>