<svg width="32" height="32" viewBox="0 0 32 32" fill="none" xmlns="http://www.w3.org/2000/svg"><path d="M7.88 8h16v16h-16V8Zm11.844 7.28c-.616.062-1.227.37-1.565.902-.304.46-.36 1.045-.254 1.577.08.428.316.82.646 1.1.493.434 1.124.648 1.713.914.232.11.477.214.665.396.209.198.262.537.134.793-.107.21-.323.34-.544.399-.331.085-.69.066-1.01-.052-.386-.143-.672-.464-.88-.808-.409.235-.815.473-1.223.709.135.262.309.506.52.712.425.422.995.681 1.583.774a3.77 3.77 0 0 0 1.588-.074c.498-.14.97-.433 1.245-.878.312-.491.351-1.11.235-1.668a1.91 1.91 0 0 0-.656-1.055c-.48-.405-1.072-.64-1.642-.886-.252-.113-.515-.219-.725-.402-.285-.246-.294-.752 0-.994.23-.192.56-.198.836-.12.294.085.49.341.635.597l1.17-.751c-.216-.382-.515-.728-.907-.935-.477-.252-1.035-.302-1.564-.25Zm-4.634.066c0 1.718.001 3.437-.001 5.155-.005.28-.052.61-.301.78-.23.142-.523.15-.777.082-.344-.105-.527-.441-.695-.732l-1.223.74c.17.36.42.686.744.92.424.315.958.45 1.48.452.527.005 1.077-.101 1.505-.424.369-.271.602-.694.698-1.136.094-.398.07-.81.073-1.215v-4.622H15.09Z" fill="#F7DF1E"></path><path d="M19.724 15.28c.529-.052 1.087-.002 1.564.25.392.207.691.553.908.935l-1.17.751c-.145-.256-.342-.512-.636-.598-.276-.077-.606-.071-.836.12-.294.243-.285.748 0 .994.21.184.473.29.725.403.57.246 1.162.481 1.642.886.325.27.567.64.656 1.055.116.558.077 1.176-.235 1.668-.276.445-.747.738-1.245.878a3.772 3.772 0 0 1-1.588.074c-.588-.093-1.158-.352-1.583-.774a2.755 2.755 0 0 1-.52-.712c.408-.236.814-.474 1.223-.71.208.345.494.666.88.809.32.117.679.137 1.01.052.22-.06.437-.19.544-.4a.693.693 0 0 0-.134-.792c-.188-.182-.433-.286-.665-.396-.59-.266-1.22-.48-1.713-.913a1.93 1.93 0 0 1-.646-1.101c-.106-.532-.05-1.116.254-1.578.338-.531.949-.84 1.565-.901ZM15.09 15.346h1.503v4.622c-.003.405.021.817-.073 1.215-.096.442-.33.864-.698 1.136-.428.323-.978.43-1.505.424-.522-.002-1.056-.137-1.48-.451a2.39 2.39 0 0 1-.744-.921l1.223-.74c.168.29.351.627.694.732.255.068.549.06.778-.081.25-.17.296-.5.3-.78.003-1.72.001-3.438.002-5.156Z" fill="#000"></path></svg>