      <svg width="32" height="32" viewBox="0 0 32 32" fill="none" xmlns="http://www.w3.org/2000/svg">
              <path
                d="M12.584 12.953c.865 2.645 1.193 7.363 3.722 7.363.192 0 .387-.019.582-.056-2.299-.536-2.571-5.203-3.974-7.62-.11.1-.22.204-.33.313Z"
                fill="url(#paint0_linear_775_14102)"></path>
              <path
                d="M12.914 12.64c1.403 2.416 1.675 7.083 3.975 7.62.18-.034.361-.084.543-.147-2.064-1.011-2.634-5.544-4.228-7.725-.096.08-.193.164-.29.251Z"
                fill="url(#paint1_linear_775_14102)"></path>
              <path
                d="M14.935 11.202c-.192 0-.387.019-.583.056-.512.097-1.032.317-1.556.65.144.142.28.303.408.48.533-.443 1.063-.77 1.59-.966.198-.073.395-.128.593-.165a1.824 1.824 0 0 0-.452-.055Z"
                fill="#14559A"></path>
              <path
                d="M19.042 19.181c.211-.167.423-.353.635-.556-.879-2.632-1.194-7.418-3.74-7.418-.183 0-.367.017-.55.05 2.32.578 2.617 5.625 3.655 7.925Z"
                fill="url(#paint2_linear_775_14102)"></path>
              <path d="M15.388 11.257a1.828 1.828 0 0 0-.453-.055l1.002.004c-.182 0-.366.017-.55.051" fill="#3092C4">
              </path>
              <path
                d="M18.997 19.74c-.1-.095-.194-.199-.287-.31a5.27 5.27 0 0 1-1.28.683 1.97 1.97 0 0 0 .884.203c.476 0 .852-.056 1.173-.21a2.23 2.23 0 0 1-.49-.366Z"
                fill="#1969BC"></path>
              <path
                d="M14.794 11.422c2.078 1.087 2.26 6.009 3.917 8.008.111-.079.221-.162.331-.25-1.038-2.299-1.334-7.347-3.654-7.923a3.598 3.598 0 0 0-.594.165Z"
                fill="url(#paint3_linear_775_14102)"></path>
              <path
                d="M13.204 12.388c1.593 2.181 2.163 6.714 4.227 7.725.424-.15.851-.38 1.28-.683-1.659-1.999-1.84-6.92-3.917-8.008-.528.196-1.057.523-1.59.966Z"
                fill="url(#paint4_linear_775_14102)"></path>
              <path
                d="M11.565 12.89c-.25.564-.505 1.306-.813 2.275.613-.864 1.224-1.609 1.832-2.212a6.651 6.651 0 0 0-.27-.707c-.25.19-.5.405-.75.643Z"
                fill="url(#paint5_linear_775_14102)"></path>
              <path
                d="M12.536 12.083a8.416 8.416 0 0 0-.221.163c.096.211.186.449.27.706.11-.108.22-.213.33-.313a4.373 4.373 0 0 0-.38-.556Z"
                fill="#2B74B1"></path>
              <path
                d="M12.797 11.91a7.161 7.161 0 0 0-.262.174c.136.167.261.354.38.557a8.87 8.87 0 0 1 .29-.252 3.86 3.86 0 0 0-.408-.48Z"
                fill="#125A9E"></path>
              <path
                d="M26.97 11.001c-1.175 4.532-3.63 8.173-5.687 9.09h-.004a3.401 3.401 0 0 1-.111.048c-.005.003-.01.004-.014.005l-.032.013c-.005.003-.01.003-.014.005l-.051.019-.021.007a.254.254 0 0 1-.026.008l-.025.009-.022.007c-.015.005-.029.008-.044.014-.006 0-.012.003-.018.005l-.03.008a.643.643 0 0 1-.053.014l-.039.008c.093.035.19.052.295.052 1.951 0 3.919-3.497 7.174-9.313H26.97v.001Z"
                fill="url(#paint6_linear_775_14102)"></path>
              <path
                d="m10.328 11.387.003-.003c.002 0 .004 0 .005-.003h.002l.032-.013c.003 0 .004 0 .006-.002.003 0 .006-.004.008-.004l.034-.012h.002l.075-.026c.004 0 .007-.003.011-.003l.032-.01c.005-.003.01-.003.015-.005l.032-.01.013-.002c.036-.01.071-.02.107-.028.005 0 .01-.003.015-.004a.209.209 0 0 1 .03-.006c.005-.003.01-.003.016-.005.01-.003.02-.003.032-.005h.007l.066-.012h.013c.01-.004.02-.004.03-.006.005 0 .011-.003.017-.003.01 0 .02-.003.029-.004.005 0 .01 0 .015-.003.023-.003.047-.005.07-.006a2.169 2.169 0 0 0-.207-.011c-2.198 0-5.225 4.077-6.59 9.358h.263c.437-.778.829-1.515 1.188-2.206.955-3.74 2.9-6.291 4.629-6.967"
                fill="url(#paint7_linear_775_14102)"></path>
              <path
                d="M11.565 12.888c.25-.238.5-.452.749-.642a3.538 3.538 0 0 0-.179-.345c-.2.244-.384.566-.57.987ZM11.746 11.417c.143.12.272.286.39.484a1.7 1.7 0 0 1 .113-.127 2.205 2.205 0 0 0-.503-.357"
                fill="#0D82CA"></path>
              <path d="M5.698 18.354c2.004-3.862 2.954-6.306 4.63-6.967-1.728.676-3.674 3.226-4.63 6.967Z"
                fill="url(#paint8_linear_775_14102)"></path>
              <path
                d="M12.248 11.775c-.039.04-.076.082-.113.127.063.105.121.22.178.345.075-.057.148-.11.222-.163a3.02 3.02 0 0 0-.287-.309Z"
                fill="#127BCA"></path>
              <path
                d="M6.608 20.542c-.013.003-.025.003-.036.005h-.007l-.031.003h-.005c-.025.003-.05.003-.074.005h-.008c2.029-.057 2.956-1.073 3.416-2.545.35-1.117.636-2.058.888-2.847-.85 1.196-1.703 2.621-2.56 4.218-.414.77-1.044 1.091-1.583 1.16"
                fill="url(#paint9_linear_775_14102)"></path>
              <path
                d="M6.608 20.542c.54-.07 1.17-.39 1.583-1.16.858-1.597 1.712-3.022 2.56-4.218.31-.97.564-1.711.814-2.276-1.692 1.61-3.39 4.288-4.957 7.653"
                fill="url(#paint10_linear_775_14102)"></path>
              <path d="M5.698 18.354c-.358.691-.75 1.428-1.187 2.206h.765c.101-.773.245-1.51.422-2.206" fill="#05A1E6">
              </path>
              <path
                d="m10.975 11.22-.016.002c-.009.004-.019.004-.028.005-.006 0-.011 0-.017.003-.01.003-.02.003-.03.005-.005 0-.01 0-.014.003l-.065.011h-.007a.242.242 0 0 1-.032.006c-.005.004-.01.004-.016.005l-.03.006c-.006.003-.01.003-.015.003a3.255 3.255 0 0 0-.107.028c-.004 0-.008.003-.013.004l-.032.01-.015.004-.032.01-.011.002-.075.027-.034.011-.014.006c-.011.003-.022.008-.032.012l-.01.005c-1.676.661-2.626 3.105-4.63 6.967a18.606 18.606 0 0 0-.422 2.206h.107c.302 0 .388-.003.735-.003H6.457c.024-.003.049-.003.074-.005h.005l.03-.003h.008c.011 0 .024-.003.036-.005 1.567-3.365 3.265-6.042 4.957-7.652.186-.422.37-.744.57-.987a1.866 1.866 0 0 0-.39-.485s-.004 0-.004-.003l-.024-.011-.023-.012a.243.243 0 0 1-.023-.012l-.027-.011-.022-.01a.895.895 0 0 1-.044-.018l-.019-.007a.718.718 0 0 1-.033-.013l-.018-.006-.046-.016h-.004l-.053-.015c-.004-.003-.008-.003-.012-.004l-.045-.012-.01-.003a1.563 1.563 0 0 0-.112-.025c-.004 0-.007-.003-.011-.003a.621.621 0 0 0-.049-.008c-.003-.003-.006-.003-.01-.003l-.056-.007h-.01c-.016-.003-.03-.003-.044-.005l-.07.006"
                fill="url(#paint11_linear_775_14102)"></path>
              <path
                d="M22.38 13.51c-.385 1.236-.698 2.255-.97 3.093 1.059-1.456 2.1-3.287 3.093-5.4-1.157.363-1.775 1.195-2.123 2.308Z"
                fill="url(#paint12_linear_775_14102)"></path>
              <path
                d="M21.444 20.015a3.363 3.363 0 0 1-.162.077c2.058-.918 4.513-4.558 5.688-9.09h-.238c-2.7 4.823-3.569 8.052-5.288 9.013Z"
                fill="url(#paint13_linear_775_14102)"></path>
              <path
                d="M20.1 19.61c.448-.547.813-1.476 1.31-3.007-.574.79-1.152 1.467-1.73 2.02 0 .003 0 .003-.004.005.127.378.265.712.423.982"
                fill="#079AE1"></path>
              <path
                d="M20.1 19.61a1.833 1.833 0 0 1-.613.497 1.734 1.734 0 0 0 .73.207h.007a.28.28 0 0 1 .05.003h.167c.006 0 .013 0 .019-.003.012 0 .024 0 .037-.003H20.515c.013 0 .027-.004.04-.005h.003l.013-.003.042-.006h.013l.048-.008h.008l.096-.02c-.265-.098-.488-.327-.68-.654"
                fill="#1969BC"></path>
              <path
                d="M16.306 20.317c.192 0 .387-.02.582-.057a3.61 3.61 0 0 0 .543-.146 1.975 1.975 0 0 0 .884.203h-2.01ZM18.314 20.316c.476 0 .853-.057 1.172-.21a1.734 1.734 0 0 0 .731.207h.006a.28.28 0 0 1 .05.003h.057-2.017.001Z"
                fill="#1E5CB3"></path>
              <path
                d="M20.332 20.315H20.442c.007 0 .013 0 .02-.003.011 0 .024 0 .037-.003H20.517c.013 0 .027-.003.04-.004h.003l.012-.003.043-.007c.005 0 .008 0 .013-.003.016-.003.032-.004.049-.008h.007c.033-.006.064-.012.096-.02a.84.84 0 0 0 .295.052l-.742.003v-.004Z"
                fill="#1D60B5"></path>
              <path
                d="M19.677 18.628v-.003a9.256 9.256 0 0 1-.634.556c-.11.087-.22.17-.332.249.093.11.188.215.287.31.151.147.313.27.49.366a1.83 1.83 0 0 0 .613-.497 5.267 5.267 0 0 1-.423-.982"
                fill="#175FAB"></path>
              <path
                d="M25.978 11.001H24.78l-.19.01-.089.189c-.992 2.113-2.034 3.945-3.092 5.4-.497 1.532-.863 2.46-1.31 3.007.191.327.414.556.678.654.008-.003.014-.003.021-.005h.005l.014-.003.034-.008c.007-.004.012-.004.02-.006l.029-.008c.006-.003.012-.004.019-.005l.043-.013a.139.139 0 0 1 .023-.008c.008-.003.017-.005.024-.009.01-.003.018-.004.026-.008l.02-.007.052-.019c.005 0 .01-.004.015-.005l.031-.012c.004-.003.009-.004.014-.005.036-.015.073-.03.11-.048h.005c.053-.023.107-.05.16-.077 1.72-.96 2.59-4.19 5.29-9.013h-.755.001Z"
                fill="url(#paint14_linear_775_14102)"></path>
              <path
                d="M11.046 11.212c.004 0 .008 0 .012.003.01 0 .021 0 .031.004h.01l.058.007c.004 0 .007 0 .01.003l.048.008.012.003c.037.008.075.015.111.025.004 0 .007.003.01.003l.045.013c.005 0 .008.003.012.003a.844.844 0 0 1 .057.019l.046.015.018.006.033.014c.007 0 .013.004.02.006.013.007.028.013.043.019l.022.01a2.242 2.242 0 0 0 .05.023l.024.01c.19.095.367.22.53.372.06-.063.124-.12.189-.17a2.073 2.073 0 0 0-1.391-.391"
                fill="#7DCBEC"></path>
              <path
                d="M12.249 11.774c.1.094.196.197.286.31.088-.062.175-.12.262-.175a2.77 2.77 0 0 0-.36-.306 1.69 1.69 0 0 0-.188.171Z"
                fill="#5EC5ED"></path>
              <path d="M11.046 11.213a2.076 2.076 0 0 1 1.391.39c.376-.297.832-.4 1.464-.4h-3.063c.07 0 .14.004.208.01Z"
                fill="url(#paint15_linear_775_14102)"></path>
              <path
                d="M13.902 11.203c-.633 0-1.088.104-1.465.401.125.088.245.191.36.305.524-.333 1.044-.554 1.556-.65.195-.037.39-.056.582-.056h-1.033Z"
                fill="url(#paint16_linear_775_14102)"></path>
              <path
                d="M21.41 16.604c.273-.84.584-1.858.97-3.093.348-1.113.965-1.946 2.122-2.309l.09-.189c-1.887.113-2.77 1.073-3.213 2.495-.777 2.481-1.247 4.09-1.7 5.115.579-.553 1.157-1.231 1.731-2.02Z"
                fill="url(#paint17_linear_775_14102)"></path>
              <path
                d="M24.179 19.655h-.214v.664h-.087v-.664h-.215v-.08h.516v.08ZM25.055 20.32h-.087v-.5c0-.04.003-.088.007-.144a.508.508 0 0 1-.023.072l-.254.571h-.042l-.254-.566a.42.42 0 0 1-.023-.077h-.003c.003.03.004.078.004.145v.498h-.083v-.743h.115l.228.519c.017.039.028.069.034.089h.003c.015-.041.027-.072.036-.091l.233-.517h.11v.743h-.001Z"
                fill="#000"></path>
              <defs>
                <linearGradient id="paint0_linear_775_14102" x1="14.736" y1="11.142" x2="14.736" y2="22.59"
                  gradientUnits="userSpaceOnUse">
                  <stop stop-color="#0994DC"></stop>
                  <stop offset="0.35" stop-color="#66CEF5"></stop>
                  <stop offset="0.846" stop-color="#127BCA"></stop>
                  <stop offset="1" stop-color="#127BCA"></stop>
                </linearGradient>
                <linearGradient id="paint1_linear_775_14102" x1="15.173" y1="10.851" x2="15.173" y2="22.591"
                  gradientUnits="userSpaceOnUse">
                  <stop stop-color="#0E76BC"></stop>
                  <stop offset="0.36" stop-color="#36AEE8"></stop>
                  <stop offset="0.846" stop-color="#00ADEF"></stop>
                  <stop offset="1" stop-color="#00ADEF"></stop>
                </linearGradient>
                <linearGradient id="paint2_linear_775_14102" x1="17.532" y1="20.052" x2="17.532" y2="10.711"
                  gradientUnits="userSpaceOnUse">
                  <stop stop-color="#1C63B7"></stop>
                  <stop offset="0.5" stop-color="#33BDF2"></stop>
                  <stop offset="1" stop-color="#33BDF2" stop-opacity="0.42"></stop>
                </linearGradient>
                <linearGradient id="paint3_linear_775_14102" x1="16.918" y1="9.662" x2="16.918" y2="21.851"
                  gradientUnits="userSpaceOnUse">
                  <stop stop-color="#166AB8"></stop>
                  <stop offset="0.4" stop-color="#36AEE8"></stop>
                  <stop offset="0.846" stop-color="#0798DD"></stop>
                  <stop offset="1" stop-color="#0798DD"></stop>
                </linearGradient>
                <linearGradient id="paint4_linear_775_14102" x1="15.957" y1="9.726" x2="15.957" y2="22.688"
                  gradientUnits="userSpaceOnUse">
                  <stop stop-color="#124379"></stop>
                  <stop offset="0.39" stop-color="#1487CB"></stop>
                  <stop offset="0.78" stop-color="#165197"></stop>
                  <stop offset="1" stop-color="#165197"></stop>
                </linearGradient>
                <linearGradient id="paint5_linear_775_14102" x1="10.752" y1="13.706" x2="12.584" y2="13.706"
                  gradientUnits="userSpaceOnUse">
                  <stop stop-color="#33BDF2" stop-opacity="0.698"></stop>
                  <stop offset="1" stop-color="#1DACD8"></stop>
                </linearGradient>
                <linearGradient id="paint6_linear_775_14102" x1="24.515" y1="19.818" x2="24.515" y2="10.718"
                  gradientUnits="userSpaceOnUse">
                  <stop stop-color="#136AB4"></stop>
                  <stop offset="0.6" stop-color="#59CAF5" stop-opacity="0.549"></stop>
                  <stop offset="1" stop-color="#59CAF5" stop-opacity="0.235"></stop>
                </linearGradient>
                <linearGradient id="paint7_linear_775_14102" x1="4.248" y1="15.88" x2="11.046" y2="15.88"
                  gradientUnits="userSpaceOnUse">
                  <stop stop-color="#05A1E6" stop-opacity="0.247"></stop>
                  <stop offset="1" stop-color="#05A1E6"></stop>
                </linearGradient>
                <linearGradient id="paint8_linear_775_14102" x1="8.013" y1="20.047" x2="8.013" y2="10.73"
                  gradientUnits="userSpaceOnUse">
                  <stop stop-color="#318ED5"></stop>
                  <stop offset="1" stop-color="#38A7E4"></stop>
                </linearGradient>
                <linearGradient id="paint9_linear_775_14102" x1="8.599" y1="20.08" x2="8.599" y2="11.023"
                  gradientUnits="userSpaceOnUse">
                  <stop stop-color="#05A1E6"></stop>
                  <stop offset="1" stop-color="#05A1E6" stop-opacity="0.549"></stop>
                </linearGradient>
                <linearGradient id="paint10_linear_775_14102" x1="9.087" y1="20.542" x2="9.087" y2="12.889"
                  gradientUnits="userSpaceOnUse">
                  <stop stop-color="#1959A6"></stop>
                  <stop offset="0.5" stop-color="#05A1E6"></stop>
                  <stop offset="0.918" stop-color="#7EC5EA"></stop>
                  <stop offset="1" stop-color="#7EC5EA"></stop>
                </linearGradient>
                <linearGradient id="paint11_linear_775_14102" x1="9.38" y1="20.053" x2="6.785" y2="12.125"
                  gradientUnits="userSpaceOnUse">
                  <stop stop-color="#165096"></stop>
                  <stop offset="1" stop-color="#0D82CA"></stop>
                </linearGradient>
                <linearGradient id="paint12_linear_775_14102" x1="22.957" y1="15.361" x2="22.957" y2="11.024"
                  gradientUnits="userSpaceOnUse">
                  <stop stop-color="#05A1E6"></stop>
                  <stop offset="0.874" stop-color="#0495D6"></stop>
                  <stop offset="1" stop-color="#0495D6"></stop>
                </linearGradient>
                <linearGradient id="paint13_linear_775_14102" x1="24.994" y1="10.623" x2="20.953" y2="19.597"
                  gradientUnits="userSpaceOnUse">
                  <stop stop-color="#38A7E4" stop-opacity="0.329"></stop>
                  <stop offset="0.962" stop-color="#0E88D3"></stop>
                  <stop offset="1" stop-color="#0E88D3"></stop>
                </linearGradient>
                <linearGradient id="paint14_linear_775_14102" x1="23.416" y1="10.974" x2="23.416" y2="20.435"
                  gradientUnits="userSpaceOnUse">
                  <stop stop-color="#168CD4"></stop>
                  <stop offset="0.5" stop-color="#1C87CC"></stop>
                  <stop offset="1" stop-color="#154B8D"></stop>
                </linearGradient>
                <linearGradient id="paint15_linear_775_14102" x1="11.349" y1="10.779" x2="11.39" y2="11.771"
                  gradientUnits="userSpaceOnUse">
                  <stop stop-color="#97D6EE"></stop>
                  <stop offset="0.703" stop-color="#55C1EA"></stop>
                  <stop offset="1" stop-color="#55C1EA"></stop>
                </linearGradient>
                <linearGradient id="paint16_linear_775_14102" x1="12.609" y1="11.865" x2="12.794" y2="10.814"
                  gradientUnits="userSpaceOnUse">
                  <stop stop-color="#7ACCEC"></stop>
                  <stop offset="1" stop-color="#3FB7ED"></stop>
                </linearGradient>
                <linearGradient id="paint17_linear_775_14102" x1="22.135" y1="11.497" x2="22.135" y2="20.751"
                  gradientUnits="userSpaceOnUse">
                  <stop stop-color="#1DA7E7"></stop>
                  <stop offset="1" stop-color="#37ABE7" stop-opacity="0"></stop>
                </linearGradient>
              </defs>
            </svg>